<svg xmlns="http://www.w3.org/2000/svg" viewBox="0 0 230 160"><defs><style>.cls-1{fill:#e6e6e6;}.cls-2{fill:#b3b3b3;opacity:0.2;}.cls-3{fill:#333;stroke:#333;stroke-width:2.39px;}.cls-3,.cls-8,.cls-9{stroke-miterlimit:10;}.cls-4{fill:#f2f2f2;}.cls-5{opacity:0.08;}.cls-6,.cls-7{fill:#29abe2;}.cls-7{opacity:0.1;}.cls-8{fill:none;stroke-width:7.96px;}.cls-8,.cls-9{stroke:#4a4a49;}.cls-9{fill:#4a4a49;stroke-width:4.47px;}.cls-10{fill:#5854ae;}.cls-11{fill:#f7931e;opacity:0.16;}</style></defs><title>programuj-spolecznie-lupa</title><g id="lupa"><path class="cls-1" d="M114,47.39S90.26,73.06,60.95,73.06,7.88,47.39,7.88,47.39,31.64,21.72,60.95,21.72,114,47.39,114,47.39Z"/><path class="cls-2" d="M7.31,47.72S31.07,22,60.38,22s53.07,25.67,53.07,25.67"/><circle class="cls-3" cx="60.2" cy="47.69" r="19.52"/><circle class="cls-4" cx="65.38" cy="54.56" r="8.05"/><path class="cls-1" d="M54.8,49.28a3.13,3.13,0,0,1,2.84-4c2.17,0,2.18-3.42,0-3.38a6.49,6.49,0,0,0-6.1,8.28,1.69,1.69,0,0,0,3.26-.9Z"/><g class="cls-5"><circle class="cls-6" cx="85.26" cy="62.58" r="56.37" transform="translate(11.29 138.17) rotate(-81.9)"/></g><polygon class="cls-7" points="50.66 21.58 73.25 117.42 51.89 108.58 42.42 25.43 50.66 21.58"/><circle class="cls-8" cx="85.56" cy="62.42" r="56.37" transform="translate(11.7 138.32) rotate(-81.9)"/><path class="cls-9" d="M123.86,117.72H225.52a3.08,3.08,0,0,1,3.08,3.08v0a3.08,3.08,0,0,1-3.08,3.08H123.86a0,0,0,0,1,0,0v-6.16a0,0,0,0,1,0,0Z" transform="translate(102.31 -79.67) rotate(35.33)"/><path class="cls-10" d="M157.74,123.88H220.4a8.85,8.85,0,0,1,8.85,8.85V133a8.85,8.85,0,0,1-8.85,8.85H157.74a3,3,0,0,1-3-3V126.88a3,3,0,0,1,3-3Z" transform="translate(112.18 -86.56) rotate(35.33)"/><path class="cls-11" d="M161.9,110.95l3.13-4.42a3,3,0,0,1,4.19-.71L220.35,142a8.88,8.88,0,0,1,2.1,12.34l-.14.19"/></g></svg>