<svg id="Warstwa_1" data-name="Warstwa 1" xmlns="http://www.w3.org/2000/svg" viewBox="0 0 230 100"><defs><style>.cls-1{fill:#fbbb21;}.cls-2,.cls-3{fill:#fff;}.cls-3{stroke:#fff;stroke-miterlimit:10;stroke-width:1.57px;}</style></defs><title>programuj-spolecznie-logoObszar roboczy 1</title><path class="cls-1" d="M23.85,41.92v6.14H20.21V26.88H23.1l.24.77a11.26,11.26,0,0,1,4.26-1c4.26,0,6.26,2.06,6.26,6.37v3.22c0,4.47-2.2,6.17-6.34,6.2A12.79,12.79,0,0,1,23.85,41.92Zm0-2.89a11.37,11.37,0,0,0,3.16.36c2.29,0,3.25-.6,3.25-3.19V32.84c0-2.35-.65-3.22-3.25-3.22a15.2,15.2,0,0,0-3.16.45Z"/><path class="cls-1" d="M40.65,28.25a18.81,18.81,0,0,1,5.81-1.64V30a21.58,21.58,0,0,0-5.54.8V42.13H37.28V26.88h2.95Z"/><path class="cls-1" d="M62.75,36.21c0,2.14-.15,6.2-7.12,6.2s-7.15-4.05-7.15-6.2v-3.4c0-2.11.18-6.2,7.15-6.2s7.12,4.08,7.12,6.2Zm-3.63-3.4c0-2.65-1.1-3.19-3.49-3.19s-3.51.57-3.51,3.19v3.4c0,2.65,1.19,3.22,3.51,3.22s3.46-.63,3.49-3.22Z"/><path class="cls-1" d="M68.61,70.73a13.63,13.63,0,0,0,5,1c2.35,0,2.89-.27,2.89-1.43,0-.86-.71-1.22-1.52-1.61l-2.83-1.34c-2.32-1.1-3.22-2.09-3.22-4.35,0-2.71,1.34-4.05,6.43-4.05a14,14,0,0,1,4.11.66v3A15.23,15.23,0,0,0,75.23,62c-2.26,0-2.68.45-2.68,1.16s.27.89,1.1,1.31l3.6,1.73c2.14,1,2.89,2,2.89,4.17,0,3.19-1.64,4.38-6.55,4.38a16.3,16.3,0,0,1-5-.89Z"/><path class="cls-1" d="M86.87,74.3v6.14H83.24V59.26h2.89l.24.77a11.26,11.26,0,0,1,4.26-1c4.26,0,6.25,2.06,6.25,6.37v3.22c0,4.47-2.2,6.17-6.34,6.2A12.78,12.78,0,0,1,86.87,74.3Zm0-2.89a11.36,11.36,0,0,0,3.16.36c2.29,0,3.25-.6,3.25-3.19V65.22c0-2.35-.65-3.22-3.25-3.22a15.2,15.2,0,0,0-3.16.45Z"/><path class="cls-1" d="M114,68.59c0,2.14-.15,6.2-7.12,6.2s-7.15-4.05-7.15-6.2v-3.4c0-2.11.18-6.2,7.15-6.2s7.12,4.08,7.12,6.2Zm-3.63-3.4c0-2.65-1.1-3.19-3.49-3.19s-3.52.57-3.52,3.19v3.4c0,2.65,1.19,3.22,3.52,3.22s3.46-.63,3.49-3.22Z"/><path class="cls-1" d="M118.51,67.36l-2.44,1.58V66.23l2.44-1.58V53.34h3.63v9l2.95-1.91v2.71L122.14,65v9.5h-3.63Z"/><path class="cls-1" d="M130.84,67.84c0,3.78,2,4,4.41,4a28,28,0,0,0,4.26-.45v2.86a23.38,23.38,0,0,1-4.59.54c-5.9,0-7.71-2.11-7.71-7.83,0-6.64,2.65-8,7.06-8,3.93,0,6.37,1.37,6.37,6.4,0,.71-.06,1.52-.15,2.44Zm6.28-2.5a5,5,0,0,0,0-.66c0-2.05-1.13-2.71-2.89-2.71s-3.16.66-3.37,3.37Z"/><path class="cls-1" d="M150.62,71.77a22.13,22.13,0,0,0,4.5-.45v2.92a27,27,0,0,1-5,.54c-6.76,0-6.91-4-6.91-6V65c0-2,.15-6,6.91-6a27,27,0,0,1,5,.54v2.92a22.13,22.13,0,0,0-4.5-.45c-2.38,0-3.75.74-3.78,3.37v3C146.86,71,148.23,71.77,150.62,71.77Z"/><path class="cls-1" d="M170.37,71.48v3h-13v-2.8l8.19-9.41h-7.71v-3H170v2.8l-8.13,9.41Z"/><path class="cls-1" d="M180.76,59c4.62,0,6,1.73,6,5.9v9.62h-3.63V65.58c0-2.32-.3-3.57-2.89-3.57a12.21,12.21,0,0,0-3.16.51v12h-3.63V59.26h2.89l.24.74A10.72,10.72,0,0,1,180.76,59Z"/><path class="cls-1" d="M192.35,57.12c-1.34,0-2-.3-2-1.91,0-1.82.57-2.14,2-2.14s2.06.33,2.06,2.14C194.4,56.82,193.72,57.12,192.35,57.12Zm-1.82,2.14h3.63V74.51h-3.63Z"/><path class="cls-1" d="M201.13,67.84c0,3.78,2,4,4.41,4a28,28,0,0,0,4.26-.45v2.86a23.38,23.38,0,0,1-4.59.54c-5.9,0-7.71-2.11-7.71-7.83,0-6.64,2.65-8,7.06-8,3.93,0,6.37,1.37,6.37,6.4,0,.71-.06,1.52-.15,2.44Zm6.28-2.5a4.89,4.89,0,0,0,0-.66c0-2.05-1.13-2.71-2.89-2.71s-3.16.66-3.37,3.37Z"/><path class="cls-2" d="M97.55,40.82c-4.14,0-6.4-1.76-6.4-6.2V31.38c0-4.2,1.82-6.34,6.14-6.34a10.44,10.44,0,0,1,4.44,1l.24-.77h2.89V38.82c0,3,0,6.25-4.85,7.45a28.67,28.67,0,0,1-6.7.57H92v-3c.77,0,5.27,0,7.12-.51,1.58-.45,1.94-1.91,2-3.28A7.76,7.76,0,0,1,97.55,40.82Zm3.66-12.33A15.32,15.32,0,0,0,98.05,28c-2.59,0-3.25.86-3.25,3.22v3.4c0,2.59,1,3.19,3.25,3.19a11.37,11.37,0,0,0,3.16-.36Z"/><path class="cls-2" d="M112.11,26.67A18.78,18.78,0,0,1,117.92,25V28.4a21.58,21.58,0,0,0-5.54.8V40.55h-3.63V25.3h2.95Z"/><path class="cls-2" d="M120,31.26c0-2.2.21-6.23,7-6.23a22.72,22.72,0,0,1,6.46.89V40.55h-2.89l-.24-.74a10.17,10.17,0,0,1-4.2,1c-5.33,0-6.11-3.34-6.11-6.26Zm3.66,3.34c.06,2.35.65,3.22,3.25,3.22a11.45,11.45,0,0,0,2.89-.48V28.28a20.17,20.17,0,0,0-2.89-.24c-2.68,0-3.25,1-3.25,3.34Z"/><path class="cls-2" d="M140.41,26a10.44,10.44,0,0,1,4.11-1c2.29,0,3.84.45,4.77,1.37A12.53,12.53,0,0,1,154.14,25c4.65,0,6,1.73,6,5.9v9.62h-3.63V31.61c0-2.32-.33-3.57-2.92-3.57a14,14,0,0,0-3.28.57,10.66,10.66,0,0,1,.21,2.32v9.62h-3.63V31.61c0-2.32-.33-3.57-2.92-3.57a11.75,11.75,0,0,0-3.07.51v12h-3.63V25.3h2.89Z"/><path class="cls-2" d="M169.81,40.82c-4.65,0-6-1.7-6-5.9V25.3h3.63v8.94c0,2.35.33,3.57,2.92,3.57a11.9,11.9,0,0,0,3.13-.48v-12h3.63V40.55h-2.89l-.24-.74A10.09,10.09,0,0,1,169.81,40.82Z"/><path class="cls-2" d="M177.56,43.89a14.77,14.77,0,0,0,2.53-.3c1-.18,1-1,1-1.61V25.3h3.63V42c0,1.37,0,3.66-3.22,4.38a19.35,19.35,0,0,1-3.9.42Zm5.3-20.73c-1.34,0-2-.3-2-1.91,0-1.82.57-2.14,2-2.14s2.06.33,2.06,2.14C184.91,22.86,184.23,23.16,182.86,23.16Z"/><path class="cls-3" d="M76.88,26.09H78.8L72.08,40.91H70.16Z"/><path class="cls-3" d="M84.75,26.09h1.93L80,40.91H78Z"/></svg>