<svg xmlns="http://www.w3.org/2000/svg" viewBox="0 0 119 180"><defs><style>.cls-1{fill:#dad9d7;}.cls-2{fill:#4a4a49;}.cls-3{fill:#fff;}.cls-4{fill:#5854ae;}.cls-5{fill:#d9d8d7;}.cls-6{fill:#00a99d;}.cls-7{fill:#55bfb5;}.cls-8{fill:#98ebba;}</style></defs><title>programuj-spolecznie-olowek</title><g id="olowek"><path class="cls-1" d="M107.56,58.06A48.07,48.07,0,1,1,59.48,10,48.07,48.07,0,0,1,107.56,58.06Z"/><path class="cls-2" d="M94.09,58.06A34.6,34.6,0,1,1,59.48,23.45,34.6,34.6,0,0,1,94.09,58.06Z"/><rect class="cls-1" x="42.41" y="103.03" width="34.14" height="7.47"/><path class="cls-3" d="M84.48,58.9V57.22a1.94,1.94,0,0,0-1.94-1.94h-.82a1.93,1.93,0,0,1-1.89-1.53,20.73,20.73,0,0,0-.57-2.14,1.93,1.93,0,0,1,.87-2.27l.71-.41a1.94,1.94,0,0,0,.71-2.64l-.84-1.45a1.94,1.94,0,0,0-2.65-.71l-.71.41a1.93,1.93,0,0,1-2.4-.38,20.86,20.86,0,0,0-1.56-1.57,1.93,1.93,0,0,1-.38-2.4l.41-.72a1.94,1.94,0,0,0-.71-2.64L71.25,36a1.94,1.94,0,0,0-2.64.71l-.41.71a1.93,1.93,0,0,1-2.27.87,20.75,20.75,0,0,0-2.14-.57,1.93,1.93,0,0,1-1.54-1.89V35a1.94,1.94,0,0,0-1.94-1.94H58.65A1.94,1.94,0,0,0,56.71,35v.83a1.93,1.93,0,0,1-1.53,1.89,20.74,20.74,0,0,0-2.14.57,1.93,1.93,0,0,1-2.27-.87l-.41-.71A1.94,1.94,0,0,0,47.71,36l-1.46.84a1.94,1.94,0,0,0-.71,2.65l.41.72a1.93,1.93,0,0,1-.38,2.4A20.63,20.63,0,0,0,44,44.15a1.93,1.93,0,0,1-2.4.38l-.71-.41a1.94,1.94,0,0,0-2.65.71l-.84,1.46a1.94,1.94,0,0,0,.71,2.64l.71.41a1.93,1.93,0,0,1,.87,2.27,21,21,0,0,0-.57,2.14,1.93,1.93,0,0,1-1.89,1.53h-.82a1.94,1.94,0,0,0-1.94,1.94V58.9a1.94,1.94,0,0,0,1.94,1.94h.82a1.93,1.93,0,0,1,1.89,1.53,21,21,0,0,0,.57,2.15,1.93,1.93,0,0,1-.87,2.27l-.71.41a1.94,1.94,0,0,0-.71,2.64l.84,1.45A1.94,1.94,0,0,0,40.9,72l.71-.41A1.93,1.93,0,0,1,44,72a20.87,20.87,0,0,0,1.57,1.57,1.93,1.93,0,0,1,.38,2.4l-.41.72a1.94,1.94,0,0,0,.71,2.65l1.46.84a1.94,1.94,0,0,0,2.64-.71l.41-.71A1.93,1.93,0,0,1,53,77.84a20.86,20.86,0,0,0,2.14.57,1.93,1.93,0,0,1,1.53,1.89v.83a1.94,1.94,0,0,0,1.94,1.94h1.67a1.94,1.94,0,0,0,1.94-1.94V80.3a1.93,1.93,0,0,1,1.53-1.89,21.14,21.14,0,0,0,2.14-.57,1.93,1.93,0,0,1,2.27.87l.41.71a1.94,1.94,0,0,0,2.64.71l1.46-.84a1.94,1.94,0,0,0,.71-2.64L73,75.93a1.93,1.93,0,0,1,.38-2.4A21.15,21.15,0,0,0,75,72a1.93,1.93,0,0,1,2.4-.38l.71.41a1.94,1.94,0,0,0,2.65-.71l.84-1.46a1.94,1.94,0,0,0-.71-2.64l-.71-.41a1.93,1.93,0,0,1-.87-2.27,20.84,20.84,0,0,0,.57-2.14,1.93,1.93,0,0,1,1.89-1.53h.82A1.94,1.94,0,0,0,84.48,58.9Z"/><rect class="cls-4" x="38.83" y="110.49" width="41.29" height="17.16"/><path class="cls-5" d="M38.83,155.82l17.69,17.69a4.18,4.18,0,0,0,5.91,0l17.69-17.69Z"/><path class="cls-2" d="M49.15,166.14l7.6,7.6a3.84,3.84,0,0,0,5.44,0l7.6-7.6Z"/><rect class="cls-6" x="38.83" y="127.66" width="13.76" height="28.16"/><rect class="cls-7" x="52.59" y="127.66" width="13.76" height="28.16"/><rect class="cls-8" x="66.35" y="127.66" width="13.76" height="28.16"/><path class="cls-2" d="M76.55,110.49h0a.85.85,0,0,1-.85-.85v-7.22l.55-.21a47.22,47.22,0,1,0-33.54,0l.55.21v7.22a.85.85,0,0,1-.85.85h0a.85.85,0,0,1-.85-.85v-2.55a5.4,5.4,0,0,0-3.11-4.86,48.93,48.93,0,1,1,70-44.18,49.22,49.22,0,0,1-28.32,44.37,4.63,4.63,0,0,0-2.69,4.19v3A.85.85,0,0,1,76.55,110.49Z"/><rect class="cls-2" x="35.24" y="109.64" width="48.48" height="1.7" rx="0.85" ry="0.85"/><rect class="cls-2" x="35.24" y="115.36" width="48.48" height="1.7" rx="0.85" ry="0.85"/><rect class="cls-2" x="35.24" y="121.08" width="48.48" height="1.7" rx="0.85" ry="0.85"/><rect class="cls-2" x="35.24" y="126.79" width="48.48" height="1.7" rx="0.85" ry="0.85"/><rect class="cls-2" x="11.41" y="9.15" width="96.15" height="1.7"/><rect class="cls-2" x="55.95" y="6.46" width="7.07" height="7.07" rx="1.32" ry="1.32"/><rect class="cls-2" x="104.02" y="54.54" width="7.07" height="7.07" rx="1.42" ry="1.42"/><rect class="cls-2" x="7.88" y="54.54" width="7.07" height="7.07" rx="2.37" ry="2.37"/><path class="cls-2" d="M62.44,14.38H56.52A1.42,1.42,0,0,1,55.1,13V7a1.42,1.42,0,0,1,1.42-1.42h5.92A1.42,1.42,0,0,1,63.87,7V13A1.42,1.42,0,0,1,62.44,14.38Zm-4.22-1.7h2.52a1.42,1.42,0,0,0,1.42-1.42V8.73a1.42,1.42,0,0,0-1.42-1.42H58.22A1.42,1.42,0,0,0,56.8,8.73v2.52A1.42,1.42,0,0,0,58.22,12.68Z"/><path class="cls-2" d="M110.52,62.46H104.6A1.42,1.42,0,0,1,103.17,61V55.11a1.42,1.42,0,0,1,1.42-1.42h5.92a1.42,1.42,0,0,1,1.42,1.42V61A1.42,1.42,0,0,1,110.52,62.46Zm-4.22-1.7h2.52a1.42,1.42,0,0,0,1.42-1.42V56.81a1.42,1.42,0,0,0-1.42-1.42h-2.52a1.42,1.42,0,0,0-1.42,1.42v2.52A1.42,1.42,0,0,0,106.29,60.76Z"/><path class="cls-2" d="M14.59,62.46H8.23A1.2,1.2,0,0,1,7,61.25V54.89a1.2,1.2,0,0,1,1.2-1.2h6.36a1.2,1.2,0,0,1,1.2,1.2v6.36A1.2,1.2,0,0,1,14.59,62.46Zm-4.66-1.7h3a1.2,1.2,0,0,0,1.2-1.2v-3a1.2,1.2,0,0,0-1.2-1.2h-3a1.2,1.2,0,0,0-1.2,1.2v3A1.2,1.2,0,0,0,9.93,60.76Z"/><path class="cls-2" d="M14.88,9.31a3.54,3.54,0,1,1-2.77-2.78A3.54,3.54,0,0,1,14.88,9.31Z"/><path class="cls-2" d="M111,9.31a3.54,3.54,0,1,1-2.78-2.78A3.54,3.54,0,0,1,111,9.31Z"/><circle class="cls-2" cx="59.62" cy="58.43" r="14.22"/></g></svg>