<svg xmlns="http://www.w3.org/2000/svg" xmlns:xlink="http://www.w3.org/1999/xlink" viewBox="0 0 277 80"><defs><style>.cls-1{fill:none;}.cls-2{fill:#faba20;}.cls-3{clip-path:url(#clip-path);}.cls-4{fill:#4a4a49;}</style><clipPath id="clip-path"><rect class="cls-1" x="5.11" y="8.41" width="265.55" height="63.53"/></clipPath></defs><title>programuj-spolecznie-logo CL</title><g id="logo"><polygon class="cls-2" points="187.87 9.07 187.87 51.21 211.59 51.21 211.59 44.99 194.84 44.99 194.84 9.07 187.87 9.07"/><g class="cls-3"><path class="cls-2" d="M214,39.18c0,5.81,1.45,12.45,11.44,12.45a18.14,18.14,0,0,0,7.87-2l.45,1.48h5.41V22A40.22,40.22,0,0,0,227,20.21c-12.67,0-13.06,8-13.06,12.39Zm6.86-6.34c0-4.68,1.06-6.64,6.08-6.64a35.65,35.65,0,0,1,5.41.48v18a20.3,20.3,0,0,1-5.41.95c-4.85,0-6-1.72-6.08-6.4Z"/><path class="cls-2" d="M252,27a23.75,23.75,0,0,1,5.8-.71c4.24,0,6,1.18,6,6.4v6.7c0,4.62-1.23,6.34-6,6.34a57.9,57.9,0,0,1-5.8-.3Zm6.75-6.7a21.43,21.43,0,0,0-6.75,1V9.07h-6.81V50.86a87.5,87.5,0,0,0,12.5.89c11.66,0,13-6.7,13-12.69V32.72c0-6.58-2.34-12.21-11.94-12.39"/><path class="cls-4" d="M70.25,61.75a13.86,13.86,0,0,0,.52-1.54q.31,1,.53,1.52l1.76,4.66H68.43Zm4.91,10h1l-5.09-13H70.5l-5.2,13h1l1.8-4.56h5.25Zm-11.69,0v-.85H57.3V66.34l3.28-2-.41-.67L57.3,65.45v-6.6h-.9V66l-1.57,1,.36.66,1.21-.76v4.87ZM42.66,61a4.37,4.37,0,0,1,3.56-1.5A4.35,4.35,0,0,1,49.77,61,6.55,6.55,0,0,1,51,65.29a6.63,6.63,0,0,1-1.23,4.31,4.35,4.35,0,0,1-3.57,1.5,4.32,4.32,0,0,1-3.55-1.52,6.62,6.62,0,0,1-1.24-4.29A6.5,6.5,0,0,1,42.66,61m7.79-.6a5.28,5.28,0,0,0-4.23-1.78A5.34,5.34,0,0,0,42,60.41a7.12,7.12,0,0,0-1.55,4.86A7.25,7.25,0,0,0,42,70.15a5.28,5.28,0,0,0,4.23,1.79,5.29,5.29,0,0,0,4.24-1.79A7.21,7.21,0,0,0,52,65.29a7.23,7.23,0,0,0-1.53-4.87m-18,3.89,5.29-5.46H36.55l-5.06,5.29-1.43,1.43V58.84h-.9V71.77h.9v-5.3l1.72-1.52,5,6.82h1.1Zm-7.26,6.61H17.36l7.58-11.4v-.67H16.51v.85h7.22l-7.57,11.4v.67h9Zm-12.4-4a3.25,3.25,0,0,0-1.11-1.11,11,11,0,0,0-2.27-1,11.62,11.62,0,0,1-2-.88,2.4,2.4,0,0,1-.85-.83,2.36,2.36,0,0,1-.26-1.18,2.17,2.17,0,0,1,.85-1.8,3.61,3.61,0,0,1,2.28-.66,8,8,0,0,1,3.08.67l.33-.78a8.55,8.55,0,0,0-3.42-.69,4.5,4.5,0,0,0-2.92.91A3.15,3.15,0,0,0,6,64a7,7,0,0,0,2.73,1.47,12.63,12.63,0,0,1,2.05.86,2.83,2.83,0,0,1,1,.88,2.2,2.2,0,0,1,.31,1.21,2.31,2.31,0,0,1-.93,1.91,4,4,0,0,1-2.52.73,9.16,9.16,0,0,1-3.56-.59v.9a9.89,9.89,0,0,0,3.63.52A4.93,4.93,0,0,0,11.91,71a3.1,3.1,0,0,0,1.19-2.56,3,3,0,0,0-.35-1.51"/><path class="cls-4" d="M264.74,61.75a13.86,13.86,0,0,0,.52-1.54q.31,1,.53,1.52l1.76,4.66h-4.62Zm4.91,10h1l-5.09-13H265l-5.2,13h1l1.8-4.56h5.25ZM256.53,58.84h-.9V71.77h.9Zm-6,0h-.88v8.43q0,1.43.08,3h-.05L242,58.84h-.9V71.77H242V63.39q0-1-.11-3.09H242l7.66,11.47h.91Zm-18.59,2.91a14.2,14.2,0,0,0,.52-1.54q.31,1,.53,1.52l1.76,4.66h-4.62Zm4.9,10h1l-5.09-13h-.57l-5.2,13h1l1.8-4.56H235ZM225.08,58.84h-.91q-2.55,9.44-2.73,10.16c-.12.48-.22.93-.3,1.35q-.19-1-.64-2.51l-2.59-9h-1l-2.21,7.84q-.69,2.45-.9,3.65c0-.23-.09-.47-.14-.7s-.11-.47-.17-.73l-.21-.8-.25-.93-2.26-8.33h-.95l3.55,12.92h.76q2.59-9.22,2.85-10.22t.4-1.77q.18.79.53,2l2.84,10h.74ZM197.48,61a5,5,0,0,1,7.11,0,6.55,6.55,0,0,1,1.23,4.28,6.62,6.62,0,0,1-1.23,4.3,5,5,0,0,1-7.12,0,6.62,6.62,0,0,1-1.24-4.29A6.5,6.5,0,0,1,197.48,61m7.79-.6A5.28,5.28,0,0,0,201,58.64a5.34,5.34,0,0,0-4.24,1.77,7.12,7.12,0,0,0-1.55,4.86,7.25,7.25,0,0,0,1.54,4.88,5.91,5.91,0,0,0,8.48,0,7.22,7.22,0,0,0,1.54-4.87,7.22,7.22,0,0,0-1.53-4.87M185.13,71.77,190,59.85H190q-.11,1.09-.11,2.12v9.79h.91V58.84h-1.36L184.9,70.21h-.05l-4.58-11.37h-1.4V71.77h.87V62.08q0-1.15-.07-2.25h.07l4.82,11.93Zm-15.46-10a14.2,14.2,0,0,0,.52-1.54q.31,1,.53,1.52l1.76,4.66h-4.62Zm4.9,10h1l-5.09-13h-.57l-5.2,13h1l1.8-4.56h5.25ZM155.26,59.66h2.14a4.83,4.83,0,0,1,2.88.67,2.53,2.53,0,0,1,.88,2.15,2.6,2.6,0,0,1-.9,2.15,3.94,3.94,0,0,1-2.54.73h-2.46Zm3.21,6.48,3.33,5.63h1.08l-3.51-5.89a3.81,3.81,0,0,0,2.08-1.28,3.5,3.5,0,0,0,.68-2.19A3.17,3.17,0,0,0,161,59.73a5.8,5.8,0,0,0-3.55-.89h-3.08V71.77h.9V66.14Zm-13.56,0h3.84v4.54a8.11,8.11,0,0,1-3,.5,5.55,5.55,0,0,1-4.18-1.47,6.08,6.08,0,0,1-1.42-4.39,5.92,5.92,0,0,1,1.5-4.26,5.32,5.32,0,0,1,4.05-1.58,8.21,8.21,0,0,1,3.48.78l.36-.81a8.92,8.92,0,0,0-3.79-.78,7,7,0,0,0-3.46.83,5.66,5.66,0,0,0-2.32,2.36,7.35,7.35,0,0,0-.81,3.5,6.85,6.85,0,0,0,1.63,4.89,6.14,6.14,0,0,0,4.69,1.73,10.7,10.7,0,0,0,4.22-.8v-5.9H144.9ZM126.08,61a5,5,0,0,1,7.11,0,6.56,6.56,0,0,1,1.23,4.28,6.62,6.62,0,0,1-1.23,4.3,5,5,0,0,1-7.12,0,6.62,6.62,0,0,1-1.24-4.29A6.5,6.5,0,0,1,126.08,61m7.79-.6a5.28,5.28,0,0,0-4.23-1.78,5.35,5.35,0,0,0-4.24,1.77,7.12,7.12,0,0,0-1.55,4.86,7.24,7.24,0,0,0,1.54,4.88,5.91,5.91,0,0,0,8.48,0,7.21,7.21,0,0,0,1.54-4.87,7.23,7.23,0,0,0-1.53-4.87m-20.64-.76h2.14a4.83,4.83,0,0,1,2.88.67,2.53,2.53,0,0,1,.88,2.15,2.6,2.6,0,0,1-.9,2.15,3.94,3.94,0,0,1-2.54.73h-2.47Zm3.21,6.48,3.33,5.63h1.08l-3.51-5.89a3.81,3.81,0,0,0,2.08-1.28,3.5,3.5,0,0,0,.68-2.19A3.17,3.17,0,0,0,119,59.73a5.8,5.8,0,0,0-3.55-.89h-3.08V71.77h.9V66.14Zm-15.24-6.48h2.14a4.6,4.6,0,0,1,2.85.72,2.64,2.64,0,0,1,.92,2.21,2.72,2.72,0,0,1-1,2.34,5.38,5.38,0,0,1-3.16.72h-1.78Zm2.26-.81h-3.16V71.77h.9V66.43h2a5.72,5.72,0,0,0,3.61-1,3.43,3.43,0,0,0,1.27-2.87q0-3.71-4.61-3.71"/></g><g class="cls-3"><path class="cls-4" d="M5.11,35.26c0,5.63.45,16.36,17.24,16.36a56,56,0,0,0,11-1.13v-6a68.26,68.26,0,0,1-11,.95c-8.76,0-10.27-4.39-10.27-10.14V25.07c0-5.93,1.67-10.43,10.27-10.43a66.86,66.86,0,0,1,11,1V9.54a55.42,55.42,0,0,0-11-1.13C5.56,8.41,5.11,19.14,5.11,24.77Z"/><path class="cls-4" d="M63.47,32.54c0-4.21-.28-12.33-13.34-12.33S36.74,28.33,36.74,32.54v6.76c0,4.27.34,12.33,13.39,12.33s13.34-8.06,13.34-12.33Zm-6.81,6.76c-.06,5.16-2,6.4-6.53,6.4-4.35,0-6.58-1.13-6.58-6.4V32.54c0-5.22,2-6.34,6.58-6.34s6.53,1.07,6.53,6.34Z"/><path class="cls-4" d="M86.79,44.81a25.78,25.78,0,0,1-5.8.83c-4.85,0-6.08-1.72-6.08-6.34V32.6c0-5.22,1.79-6.4,6.08-6.4a21.74,21.74,0,0,1,5.8.71ZM80,20.21C70.38,20.39,68,26,68,32.6v6.34c0,5.93,1.51,12.69,11.5,12.69a19.34,19.34,0,0,0,8.2-2l.45,1.48H93.6V8.95H86.79V21.22a21.47,21.47,0,0,0-6.75-1"/><path class="cls-4" d="M123.66,37.81c.17-1.84.28-3.44.28-4.86,0-10-4.58-12.74-11.94-12.74-8.26,0-13.22,2.61-13.22,15.83,0,11.38,3.4,15.59,14.45,15.59a41.44,41.44,0,0,0,8.59-1.07V44.87a49.61,49.61,0,0,1-8,.89c-4.58,0-8.26-.41-8.26-7.94Zm-18-5c.39-5.39,2.73-6.7,6.31-6.7,3.29,0,5.41,1.3,5.41,5.39a10.64,10.64,0,0,1-.06,1.3Z"/><path class="cls-4" d="M134,21.28H128.5V51.62h6.81V29c3.12-1.19,8.26-1.54,10.38-1.6v-6.7c-3.79.12-7.42,1.9-10.88,3.26Z"/><path class="cls-4" d="M148.39,49.72a29,29,0,0,0,9.32,1.78c9.21,0,12.28-2.37,12.28-8.71,0-4.27-1.4-6.28-5.41-8.3l-6.75-3.44c-1.56-.83-2.06-1.07-2.06-2.61s.78-2.31,5-2.31a27,27,0,0,1,7.92,1.24v-6a24.91,24.91,0,0,0-7.7-1.3c-9.54,0-12.05,2.67-12.05,8.06,0,4.5,1.67,6.46,6,8.65l5.3,2.67c1.51.77,2.85,1.48,2.85,3.2,0,2.31-1,2.85-5.41,2.85a24.21,24.21,0,0,1-9.32-2.07Z"/></g></g></svg>