<svg xmlns="http://www.w3.org/2000/svg" viewBox="0 0 156 86"><defs><style>.cls-1{fill:#e0e0e0;}.cls-2,.cls-5{fill:#4a4a49;}.cls-2{opacity:0.3;}.cls-3{fill:#242d3c;}.cls-4{fill:#5854ae;stroke:#4a4a49;stroke-miterlimit:10;stroke-width:2px;}.cls-6{fill:#c1272d;opacity:0.08;}</style></defs><title>programuj-spolecznie-miarka</title><g id="miarka"><rect class="cls-1" x="4.71" y="43.48" width="48.37" height="27.14" rx="9.95" ry="9.95"/><path class="cls-2" d="M51.49,66a10,10,0,0,1-1.73.16H28.17A16.83,16.83,0,0,1,11.34,49.37V49a9.88,9.88,0,0,1,1.59-5.37,10,10,0,0,0-8.22,9.79v7.23a10,10,0,0,0,10,10H43.13A10,10,0,0,0,51.49,66Z"/><circle class="cls-3" cx="42.68" cy="57.04" r="2.26"/><path class="cls-1" d="M128.39,56.34a7.92,7.92,0,0,0-5.31,1.91,7.49,7.49,0,0,0-2.51,5.61V75.92a6.4,6.4,0,0,1-1.07,3.69,6.13,6.13,0,0,1-10.1,0,6.44,6.44,0,0,1-1.06-3.69V38.14a7.7,7.7,0,0,0-1.09-4.1,7.53,7.53,0,0,0-12.47-.57,7.87,7.87,0,0,0-1.48,4.75v37.7a6.41,6.41,0,0,1-1.07,3.69,6.13,6.13,0,0,1-10.1,0,6.4,6.4,0,0,1-1.07-3.68V38.22a7.89,7.89,0,0,0-1.48-4.75,7.52,7.52,0,0,0-12.08,0A7.88,7.88,0,0,0,66,38.22V50A6.44,6.44,0,0,1,65,53.68a6.11,6.11,0,0,1-5.06,2.67H53.08v1.4H59.6a7.92,7.92,0,0,0,5.31-1.91,7.48,7.48,0,0,0,2.52-5.61v-12a6.44,6.44,0,0,1,1.06-3.69,6.13,6.13,0,0,1,10.12,0,6.45,6.45,0,0,1,1.06,3.69V75.83a7.94,7.94,0,0,0,1.9,5.31,7.52,7.52,0,0,0,11.24,0,7.94,7.94,0,0,0,1.9-5.31V38.18a6.42,6.42,0,0,1,1.06-3.68,6.13,6.13,0,0,1,10.45.56,6.2,6.2,0,0,1,.72,3V75.86a7.89,7.89,0,0,0,1.48,4.76,7.52,7.52,0,0,0,11.66.52,7.93,7.93,0,0,0,1.9-5.31V64.1A6.44,6.44,0,0,1,123,60.41a6.11,6.11,0,0,1,5.06-2.67h9.49a6,6,0,0,1,6,6v6.54h1.33V63.14a6.78,6.78,0,0,0-6.76-6.78Z"/><path class="cls-1" d="M144.63,82.84,150.5,77a.93.93,0,0,0-.65-1.58h-2.13a.93.93,0,0,1-.93-.93V67.9a.93.93,0,0,0-.93-.93H142.1a.93.93,0,0,0-.93.93v6.57a.93.93,0,0,1-.93.93h-2.13a.93.93,0,0,0-.65,1.58l5.87,5.86A.93.93,0,0,0,144.63,82.84Z"/><rect class="cls-4" x="4.71" y="4.85" width="146.72" height="19.56" rx="2.93" ry="2.93"/><rect class="cls-5" x="8.9" y="4.85" width="1.4" height="6.52"/><path class="cls-5" d="M9.2,11.37V4.85l-.3.3h1.4l-.3-.3v6.52l.3-.3H8.9a.3.3,0,0,0,0,.6h1.4a.3.3,0,0,0,.3-.3V4.85a.3.3,0,0,0-.3-.3H8.9a.3.3,0,0,0-.3.3v6.52A.3.3,0,0,0,9.2,11.37Z"/><rect class="cls-5" x="18.68" y="4.85" width="1.4" height="6.52"/><path class="cls-5" d="M19,11.37V4.85l-.3.3h1.4l-.3-.3v6.52l.3-.3h-1.4a.3.3,0,0,0,0,.6h1.4a.3.3,0,0,0,.3-.3V4.85a.3.3,0,0,0-.3-.3h-1.4a.3.3,0,0,0-.3.3v6.52A.3.3,0,0,0,19,11.37Z"/><rect class="cls-5" x="28.46" y="4.85" width="1.4" height="6.52"/><path class="cls-5" d="M28.76,11.37V4.85l-.3.3h1.4l-.3-.3v6.52l.3-.3h-1.4a.3.3,0,0,0,0,.6h1.4a.3.3,0,0,0,.3-.3V4.85a.3.3,0,0,0-.3-.3h-1.4a.3.3,0,0,0-.3.3v6.52A.3.3,0,0,0,28.76,11.37Z"/><rect class="cls-5" x="38.24" y="4.85" width="1.4" height="6.52"/><path class="cls-5" d="M38.54,11.37V4.85l-.3.3h1.4l-.3-.3v6.52l.3-.3h-1.4a.3.3,0,0,0,0,.6h1.4a.3.3,0,0,0,.3-.3V4.85a.3.3,0,0,0-.3-.3h-1.4a.3.3,0,0,0-.3.3v6.52A.3.3,0,0,0,38.54,11.37Z"/><rect class="cls-5" x="48.02" y="4.85" width="1.4" height="6.52"/><path class="cls-5" d="M48.32,11.37V4.85l-.3.3h1.4l-.3-.3v6.52l.3-.3H48a.3.3,0,0,0,0,.6h1.4a.3.3,0,0,0,.3-.3V4.85a.3.3,0,0,0-.3-.3H48a.3.3,0,0,0-.3.3v6.52A.3.3,0,0,0,48.32,11.37Z"/><rect class="cls-5" x="57.81" y="4.85" width="1.4" height="6.52"/><path class="cls-5" d="M58.11,11.37V4.85l-.3.3h1.4l-.3-.3v6.52l.3-.3h-1.4a.3.3,0,0,0,0,.6h1.4a.3.3,0,0,0,.3-.3V4.85a.3.3,0,0,0-.3-.3h-1.4a.3.3,0,0,0-.3.3v6.52A.3.3,0,0,0,58.11,11.37Z"/><rect class="cls-5" x="67.59" y="4.85" width="1.4" height="6.52"/><path class="cls-5" d="M67.89,11.37V4.85l-.3.3H69l-.3-.3v6.52l.3-.3h-1.4a.3.3,0,0,0,0,.6H69a.3.3,0,0,0,.3-.3V4.85a.3.3,0,0,0-.3-.3h-1.4a.3.3,0,0,0-.3.3v6.52A.3.3,0,0,0,67.89,11.37Z"/><rect class="cls-5" x="77.37" y="4.85" width="1.4" height="6.52"/><path class="cls-5" d="M77.67,11.37V4.85l-.3.3h1.4l-.3-.3v6.52l.3-.3h-1.4a.3.3,0,0,0,0,.6h1.4a.3.3,0,0,0,.3-.3V4.85a.3.3,0,0,0-.3-.3h-1.4a.3.3,0,0,0-.3.3v6.52A.3.3,0,0,0,77.67,11.37Z"/><rect class="cls-5" x="87.15" y="4.85" width="1.4" height="6.52"/><path class="cls-5" d="M87.45,11.37V4.85l-.3.3h1.4l-.3-.3v6.52l.3-.3h-1.4a.3.3,0,0,0,0,.6h1.4a.3.3,0,0,0,.3-.3V4.85a.3.3,0,0,0-.3-.3h-1.4a.3.3,0,0,0-.3.3v6.52A.3.3,0,0,0,87.45,11.37Z"/><rect class="cls-5" x="96.93" y="4.85" width="1.4" height="6.52"/><path class="cls-5" d="M97.23,11.37V4.85l-.3.3h1.4l-.3-.3v6.52l.3-.3h-1.4a.3.3,0,0,0,0,.6h1.4a.3.3,0,0,0,.3-.3V4.85a.3.3,0,0,0-.3-.3h-1.4a.3.3,0,0,0-.3.3v6.52A.3.3,0,0,0,97.23,11.37Z"/><rect class="cls-5" x="106.71" y="4.85" width="1.4" height="6.52"/><path class="cls-5" d="M107,11.37V4.85l-.3.3h1.4l-.3-.3v6.52l.3-.3h-1.4a.3.3,0,0,0,0,.6h1.4a.3.3,0,0,0,.3-.3V4.85a.3.3,0,0,0-.3-.3h-1.4a.3.3,0,0,0-.3.3v6.52A.3.3,0,0,0,107,11.37Z"/><rect class="cls-5" x="121.38" y="4.85" width="1.4" height="6.52"/><path class="cls-5" d="M121.68,11.37V4.85l-.3.3h1.4l-.3-.3v6.52l.3-.3h-1.4a.3.3,0,0,0,0,.6h1.4a.3.3,0,0,0,.3-.3V4.85a.3.3,0,0,0-.3-.3h-1.4a.3.3,0,0,0-.3.3v6.52A.3.3,0,0,0,121.68,11.37Z"/><rect class="cls-5" x="131.16" y="4.85" width="1.4" height="6.52"/><path class="cls-5" d="M131.46,11.37V4.85l-.3.3h1.4l-.3-.3v6.52l.3-.3h-1.4a.3.3,0,0,0,0,.6h1.4a.3.3,0,0,0,.3-.3V4.85a.3.3,0,0,0-.3-.3h-1.4a.3.3,0,0,0-.3.3v6.52A.3.3,0,0,0,131.46,11.37Z"/><rect class="cls-5" x="140.95" y="4.85" width="1.4" height="6.52"/><path class="cls-5" d="M141.25,11.37V4.85l-.3.3h1.4l-.3-.3v6.52l.3-.3h-1.4a.3.3,0,0,0,0,.6h1.4a.3.3,0,0,0,.3-.3V4.85a.3.3,0,0,0-.3-.3h-1.4a.3.3,0,0,0-.3.3v6.52A.3.3,0,0,0,141.25,11.37Z"/><rect class="cls-5" x="13.79" y="4.85" width="1.4" height="3.43"/><path class="cls-5" d="M14.09,8.28V4.85l-.3.3h1.4l-.3-.3V8.28l.3-.3h-1.4a.3.3,0,0,0,0,.6h1.4a.3.3,0,0,0,.3-.3V4.85a.3.3,0,0,0-.3-.3h-1.4a.3.3,0,0,0-.3.3V8.28A.3.3,0,0,0,14.09,8.28Z"/><rect class="cls-5" x="23.57" y="4.85" width="1.4" height="3.43"/><path class="cls-5" d="M23.87,8.28V4.85l-.3.3H25l-.3-.3V8.28L25,8h-1.4a.3.3,0,0,0,0,.6H25a.3.3,0,0,0,.3-.3V4.85a.3.3,0,0,0-.3-.3h-1.4a.3.3,0,0,0-.3.3V8.28A.3.3,0,0,0,23.87,8.28Z"/><rect class="cls-5" x="33.35" y="4.85" width="1.4" height="3.43"/><path class="cls-5" d="M33.65,8.28V4.85l-.3.3h1.4l-.3-.3V8.28l.3-.3h-1.4a.3.3,0,0,0,0,.6h1.4a.3.3,0,0,0,.3-.3V4.85a.3.3,0,0,0-.3-.3h-1.4a.3.3,0,0,0-.3.3V8.28A.3.3,0,0,0,33.65,8.28Z"/><rect class="cls-5" x="43.13" y="4.85" width="1.4" height="3.43"/><path class="cls-5" d="M43.43,8.28V4.85l-.3.3h1.4l-.3-.3V8.28l.3-.3h-1.4a.3.3,0,0,0,0,.6h1.4a.3.3,0,0,0,.3-.3V4.85a.3.3,0,0,0-.3-.3h-1.4a.3.3,0,0,0-.3.3V8.28A.3.3,0,0,0,43.43,8.28Z"/><rect class="cls-5" x="52.92" y="4.85" width="1.4" height="3.43"/><path class="cls-5" d="M53.22,8.28V4.85l-.3.3h1.4l-.3-.3V8.28l.3-.3h-1.4a.3.3,0,0,0,0,.6h1.4a.3.3,0,0,0,.3-.3V4.85a.3.3,0,0,0-.3-.3h-1.4a.3.3,0,0,0-.3.3V8.28A.3.3,0,0,0,53.22,8.28Z"/><rect class="cls-5" x="62.7" y="4.85" width="1.4" height="3.44"/><path class="cls-5" d="M63,8.28V4.85l-.3.3h1.4l-.3-.3V8.28l.3-.3H62.7a.3.3,0,0,0,0,.6h1.4a.3.3,0,0,0,.3-.3V4.85a.3.3,0,0,0-.3-.3H62.7a.3.3,0,0,0-.3.3V8.28A.3.3,0,0,0,63,8.28Z"/><rect class="cls-5" x="72.48" y="4.85" width="1.4" height="3.43"/><path class="cls-5" d="M72.78,8.28V4.85l-.3.3h1.4l-.3-.3V8.28l.3-.3h-1.4a.3.3,0,0,0,0,.6h1.4a.3.3,0,0,0,.3-.3V4.85a.3.3,0,0,0-.3-.3h-1.4a.3.3,0,0,0-.3.3V8.28A.3.3,0,0,0,72.78,8.28Z"/><rect class="cls-5" x="82.26" y="4.85" width="1.4" height="3.43"/><path class="cls-5" d="M82.56,8.28V4.85l-.3.3h1.4l-.3-.3V8.28l.3-.3h-1.4a.3.3,0,0,0,0,.6h1.4a.3.3,0,0,0,.3-.3V4.85a.3.3,0,0,0-.3-.3h-1.4a.3.3,0,0,0-.3.3V8.28A.3.3,0,0,0,82.56,8.28Z"/><rect class="cls-5" x="92.04" y="4.85" width="1.4" height="3.43"/><path class="cls-5" d="M92.34,8.28V4.85l-.3.3h1.4l-.3-.3V8.28l.3-.3H92a.3.3,0,0,0,0,.6h1.4a.3.3,0,0,0,.3-.3V4.85a.3.3,0,0,0-.3-.3H92a.3.3,0,0,0-.3.3V8.28A.3.3,0,0,0,92.34,8.28Z"/><rect class="cls-5" x="101.82" y="4.85" width="1.4" height="3.43"/><path class="cls-5" d="M102.12,8.28V4.85l-.3.3h1.4l-.3-.3V8.28l.3-.3h-1.4a.3.3,0,0,0,0,.6h1.4a.3.3,0,0,0,.3-.3V4.85a.3.3,0,0,0-.3-.3h-1.4a.3.3,0,0,0-.3.3V8.28A.3.3,0,0,0,102.12,8.28Z"/><rect class="cls-5" x="111.6" y="4.85" width="1.4" height="3.43"/><path class="cls-5" d="M111.9,8.28V4.85l-.3.3H113l-.3-.3V8.28L113,8h-1.4a.3.3,0,0,0,0,.6H113a.3.3,0,0,0,.3-.3V4.85a.3.3,0,0,0-.3-.3h-1.4a.3.3,0,0,0-.3.3V8.28A.3.3,0,0,0,111.9,8.28Z"/><rect class="cls-5" x="116.49" y="4.85" width="1.4" height="3.43"/><path class="cls-5" d="M116.79,8.28V4.85l-.3.3h1.4l-.3-.3V8.28l.3-.3h-1.4a.3.3,0,0,0,0,.6h1.4a.3.3,0,0,0,.3-.3V4.85a.3.3,0,0,0-.3-.3h-1.4a.3.3,0,0,0-.3.3V8.28A.3.3,0,0,0,116.79,8.28Z"/><rect class="cls-5" x="126.27" y="4.85" width="1.4" height="3.43"/><path class="cls-5" d="M126.57,8.28V4.85l-.3.3h1.4l-.3-.3V8.28l.3-.3h-1.4a.3.3,0,0,0,0,.6h1.4a.3.3,0,0,0,.3-.3V4.85a.3.3,0,0,0-.3-.3h-1.4a.3.3,0,0,0-.3.3V8.28A.3.3,0,0,0,126.57,8.28Z"/><rect class="cls-5" x="136.06" y="4.85" width="1.4" height="3.43"/><path class="cls-5" d="M136.36,8.28V4.85l-.3.3h1.4l-.3-.3V8.28l.3-.3h-1.4a.3.3,0,0,0,0,.6h1.4a.3.3,0,0,0,.3-.3V4.85a.3.3,0,0,0-.3-.3h-1.4a.3.3,0,0,0-.3.3V8.28A.3.3,0,0,0,136.36,8.28Z"/><rect class="cls-5" x="145.84" y="4.85" width="1.4" height="3.43"/><path class="cls-5" d="M146.14,8.28V4.85l-.3.3h1.4l-.3-.3V8.28l.3-.3h-1.4a.3.3,0,0,0,0,.6h1.4a.3.3,0,0,0,.3-.3V4.85a.3.3,0,0,0-.3-.3h-1.4a.3.3,0,0,0-.3.3V8.28A.3.3,0,0,0,146.14,8.28Z"/><path class="cls-6" d="M151.53,14.06v6.88a2.93,2.93,0,0,1-2.93,2.93H7.74a2.93,2.93,0,0,1-2.93-2.93V13.79"/></g></svg>